<svg width="23" height="23" viewBox="0 0 23 23" fill="none" xmlns="http://www.w3.org/2000/svg">
<path d="M9 0.00100708H1C0.734784 0.00100708 0.480429 0.106363 0.292892 0.2939C0.105356 0.481436 0 0.735791 0 1.00101V9.00101C0 9.26622 0.105356 9.52058 0.292892 9.70811C0.480429 9.89565 0.734784 10.001 1 10.001H9C9.26522 10.001 9.51957 9.89565 9.70711 9.70811C9.89464 9.52058 10 9.26622 10 9.00101V1.00101C10 0.735791 9.89464 0.481436 9.70711 0.2939C9.51957 0.106363 9.26522 0.00100708 9 0.00100708ZM9 9.00101H1V1.00101H9V9.00101Z" fill="#D7D7D7"/>
<path d="M9.00305 12H1.00305C0.450767 12 0.00305176 12.4477 0.00305176 13V21C0.00305176 21.5523 0.450767 22 1.00305 22H9.00305C9.55534 22 10.0031 21.5523 10.0031 21V13C10.0031 12.4477 9.55534 12 9.00305 12Z" fill="#D7D7D7"/>
<path d="M21 0H13C12.4477 0 12 0.447715 12 1V9C12 9.55229 12.4477 10 13 10H21C21.5523 10 22 9.55229 22 9V1C22 0.447715 21.5523 0 21 0Z" fill="#D7D7D7"/>
<path d="M19.9999 19.294C20.6428 18.5043 20.9957 17.5183 20.9999 16.5C21.0114 15.467 20.6709 14.4608 20.0345 13.647C19.398 12.8332 18.5035 12.2603 17.4981 12.0225C16.4927 11.7848 15.4363 11.8963 14.5028 12.3388C13.5692 12.7813 12.8141 13.5284 12.3617 14.4572C11.9092 15.386 11.7864 16.4411 12.0134 17.449C12.2404 18.4569 12.8037 19.3574 13.6107 20.0026C14.4176 20.6477 15.4201 20.9989 16.4533 20.9984C17.4864 20.998 18.4886 20.6458 19.2949 20L21.1689 21.874C21.2632 21.9651 21.3895 22.0155 21.5206 22.0143C21.6517 22.0132 21.7772 21.9606 21.8699 21.8679C21.9626 21.7752 22.0151 21.6498 22.0163 21.5187C22.0174 21.3876 21.967 21.2613 21.8759 21.167L19.9999 19.294ZM12.9999 16.5C12.9999 15.8078 13.2052 15.1311 13.5898 14.5555C13.9744 13.9799 14.521 13.5313 15.1606 13.2664C15.8001 13.0015 16.5038 12.9322 17.1828 13.0673C17.8617 13.2023 18.4853 13.5357 18.9748 14.0251C19.4643 14.5146 19.7976 15.1383 19.9327 15.8172C20.0677 16.4961 19.9984 17.1999 19.7335 17.8394C19.4686 18.4789 19.02 19.0256 18.4444 19.4102C17.8689 19.7947 17.1922 20 16.4999 20C15.5717 20 14.6814 19.6313 14.0251 18.9749C13.3687 18.3185 12.9999 17.4283 12.9999 16.5Z" fill="#D7D7D7"/>
</svg>
