<svg width="22" height="20" viewBox="0 0 22 20" fill="none" xmlns="http://www.w3.org/2000/svg">
<path d="M10.7391 12.208C10.8116 12.2702 10.904 12.3045 10.9996 12.3045C11.0951 12.3045 11.1876 12.2702 11.2601 12.208L14.1661 9.70801L14.8871 9.08801C14.6834 8.20888 14.1878 7.42475 13.4811 6.86362C12.7744 6.30248 11.8983 5.99749 10.9959 5.99842C10.0935 5.99934 9.21806 6.30614 8.5125 6.86873C7.80693 7.43132 7.31292 8.21647 7.11108 9.09601L7.82308 9.70701L10.7391 12.208ZM11.0001 6.99701C11.5773 6.99542 12.1425 7.16171 12.6268 7.47562C13.1112 7.78953 13.4938 8.23751 13.7281 8.76501L13.5141 8.94901L11.0001 11.113L8.47508 8.94701L8.26908 8.77101C8.50289 8.24207 8.88564 7.79266 9.37061 7.47763C9.85558 7.16261 10.4218 6.99561 11.0001 6.99701Z" fill="#D7D7D7"/>
<path d="M4 8C5.38071 8 6.5 6.88071 6.5 5.5C6.5 4.11929 5.38071 3 4 3C2.61929 3 1.5 4.11929 1.5 5.5C1.5 6.88071 2.61929 8 4 8Z" fill="#D7D7D7"/>
<path d="M18 8C19.3807 8 20.5 6.88071 20.5 5.5C20.5 4.11929 19.3807 3 18 3C16.6193 3 15.5 4.11929 15.5 5.5C15.5 6.88071 16.6193 8 18 8Z" fill="#D7D7D7"/>
<path d="M11 5C11.4945 5 11.9778 4.85338 12.3889 4.57868C12.8 4.30397 13.1205 3.91352 13.3097 3.45671C13.4989 2.99989 13.5484 2.49723 13.452 2.01228C13.3555 1.52733 13.1174 1.08187 12.7678 0.732234C12.4181 0.382603 11.9727 0.144501 11.4877 0.0480377C11.0028 -0.0484254 10.5001 0.00108391 10.0433 0.190303C9.58647 0.379522 9.19603 0.699949 8.92133 1.11107C8.64662 1.52219 8.5 2.00555 8.5 2.5C8.5 3.16304 8.76339 3.79892 9.23223 4.26776C9.70107 4.73661 10.337 5 11 5ZM11 1C11.2967 1 11.5867 1.08797 11.8334 1.2528C12.08 1.41762 12.2723 1.65189 12.3858 1.92597C12.4993 2.20006 12.5291 2.50166 12.4712 2.79264C12.4133 3.08361 12.2704 3.35089 12.0607 3.56066C11.8509 3.77044 11.5836 3.9133 11.2926 3.97118C11.0017 4.02906 10.7001 3.99935 10.426 3.88582C10.1519 3.77229 9.91761 3.58003 9.75279 3.33335C9.58797 3.08668 9.5 2.79668 9.5 2.5C9.5 2.10218 9.65803 1.72065 9.93934 1.43934C10.2206 1.15804 10.6022 1 11 1Z" fill="#D7D7D7"/>
<path d="M18.088 9.02198C17.1842 9.00175 16.3011 9.29423 15.588 9.84998V9.83998L14.8151 10.465L11.2581 13.526C11.1859 13.5896 11.0932 13.6251 10.997 13.626C10.9011 13.6255 10.8086 13.5899 10.737 13.526L7.16905 10.465L6.58305 9.98898C6.54705 9.95798 6.50905 9.92898 6.47205 9.89898L6.37205 9.81699V9.82298C5.65922 9.27993 4.78181 8.99758 3.88605 9.02298C2.8216 9.08677 1.82294 9.55933 1.09863 10.342C0.374328 11.1246 -0.0196247 12.1568 -0.00095222 13.223V20H7.99905V14.813L8.19205 14.975L10.337 16.775C10.5225 16.9303 10.7566 17.0155 10.9985 17.0155C11.2404 17.0155 11.4746 16.9303 11.6601 16.775L13.7991 14.975L13.999 14.807V20H21.999V13.224C22.018 12.1535 21.6209 11.1174 20.8915 10.3337C20.1621 9.55005 19.1571 9.07981 18.088 9.02198Z" fill="#D7D7D7"/>
</svg>
