<svg width="16" height="13" viewBox="0 0 16 13" fill="none" xmlns="http://www.w3.org/2000/svg">
<path d="M13.2 11.375H2.8C2.58 11.375 2.4 11.5578 2.4 11.7812V12.5938C2.4 12.8172 2.58 13 2.8 13H13.2C13.42 13 13.6 12.8172 13.6 12.5938V11.7812C13.6 11.5578 13.42 11.375 13.2 11.375ZM14.8 3.25C14.1375 3.25 13.6 3.7959 13.6 4.46875C13.6 4.64902 13.64 4.8166 13.71 4.97148L11.9 6.07344C11.515 6.30703 11.0175 6.175 10.795 5.77891L8.7575 2.1582C9.025 1.93477 9.2 1.59961 9.2 1.21875C9.2 0.545898 8.6625 0 8 0C7.3375 0 6.8 0.545898 6.8 1.21875C6.8 1.59961 6.975 1.93477 7.2425 2.1582L5.205 5.77891C4.9825 6.175 4.4825 6.30703 4.1 6.07344L2.2925 4.97148C2.36 4.81914 2.4025 4.64902 2.4025 4.46875C2.4025 3.7959 1.865 3.25 1.2025 3.25C0.54 3.25 0 3.7959 0 4.46875C0 5.1416 0.5375 5.6875 1.2 5.6875C1.265 5.6875 1.33 5.67734 1.3925 5.66719L3.2 10.5625H12.8L14.6075 5.66719C14.67 5.67734 14.735 5.6875 14.8 5.6875C15.4625 5.6875 16 5.1416 16 4.46875C16 3.7959 15.4625 3.25 14.8 3.25Z" fill="#FFD233"/>
</svg>
