<svg width="22" height="22" viewBox="0 0 22 22" fill="none" xmlns="http://www.w3.org/2000/svg">
<path d="M21.62 8.12799L11.62 0.217991C11.4435 0.0784818 11.225 0.00259399 11 0.00259399C10.775 0.00259399 10.5565 0.0784818 10.38 0.217991L0.38 8.12799C0.261618 8.22154 0.165939 8.34066 0.100131 8.47643C0.0343226 8.61221 9.08233e-05 8.76111 0 8.91199V21C0 21.2652 0.105357 21.5196 0.292893 21.7071C0.48043 21.8946 0.734784 22 1 22H6V14.151C6 13.8457 6.12127 13.553 6.33712 13.3371C6.55297 13.1213 6.84574 13 7.151 13H14.851C15.1559 13.0005 15.4482 13.122 15.6636 13.3378C15.879 13.5536 16 13.8461 16 14.151V22H21C21.2652 22 21.5196 21.8946 21.7071 21.7071C21.8946 21.5196 22 21.2652 22 21V8.91199C21.9999 8.76111 21.9657 8.61221 21.8999 8.47643C21.8341 8.34066 21.7384 8.22154 21.62 8.12799Z" fill="#767D88"/>
<path d="M14.5 20H7.5C7.22386 20 7 20.2239 7 20.5C7 20.7761 7.22386 21 7.5 21H14.5C14.7761 21 15 20.7761 15 20.5C15 20.2239 14.7761 20 14.5 20Z" fill="#767D88"/>
</svg>
