<svg width="22" height="22" viewBox="0 0 22 22" fill="none" xmlns="http://www.w3.org/2000/svg">
<path d="M11 13C13.2091 13 15 11.2091 15 9C15 6.79086 13.2091 5 11 5C8.79086 5 7 6.79086 7 9C7 11.2091 8.79086 13 11 13Z" fill="#D7D7D7"/>
<path d="M22 11C22.0011 9.0937 21.5068 7.21981 20.5656 5.56208C19.6243 3.90435 18.2684 2.51969 16.6307 1.54388C14.9931 0.568062 13.13 0.0345841 11.2241 -0.00424786C9.31815 -0.0430799 7.43485 0.414071 5.75884 1.32237C4.08282 2.23068 2.67162 3.55895 1.66361 5.17697C0.655595 6.79498 0.0853806 8.64718 0.00886574 10.552C-0.0676491 12.4567 0.352161 14.3487 1.22714 16.0424C2.10212 17.736 3.40224 19.1732 5 20.213C5.45895 20.5104 5.93925 20.7735 6.437 21C6.78437 21.1592 7.13986 21.3001 7.502 21.422H7.50999C7.85348 21.5373 8.2026 21.6351 8.556 21.715C8.587 21.722 8.617 21.732 8.647 21.739C8.973 21.809 9.30401 21.863 9.63901 21.904C9.69901 21.912 9.75699 21.925 9.81799 21.931C10.6035 22.019 11.3965 22.019 12.182 21.931C12.243 21.925 12.301 21.912 12.361 21.904C12.696 21.863 13.027 21.804 13.353 21.739C13.383 21.732 13.413 21.722 13.444 21.715C13.7974 21.6351 14.1465 21.5373 14.49 21.422H14.498C14.8601 21.3001 15.2156 21.1592 15.563 21C16.0607 20.7735 16.5411 20.5104 17 20.213C18.535 19.2155 19.7965 17.8503 20.6697 16.2413C21.5429 14.6323 22.0002 12.8307 22 11ZM16.917 19.043C16.6909 17.6365 15.9711 16.3566 14.8868 15.4327C13.8025 14.5089 12.4245 14.0014 11 14.0014C9.57547 14.0014 8.19751 14.5089 7.11321 15.4327C6.0289 16.3566 5.30914 17.6365 5.08299 19.043C3.38389 17.7959 2.12227 16.0439 1.47826 14.037C0.834248 12.0302 0.840792 9.87113 1.49695 7.86822C2.15311 5.86531 3.42533 4.12092 5.13196 2.88414C6.83858 1.64736 8.89235 0.981432 11 0.981432C13.1077 0.981432 15.1614 1.64736 16.868 2.88414C18.5747 4.12092 19.8469 5.86531 20.5031 7.86822C21.1592 9.87113 21.1658 12.0302 20.5217 14.037C19.8777 16.0439 18.6161 17.7959 16.917 19.043Z" fill="#D7D7D7"/>
</svg>
