<svg width="10" height="10" viewBox="0 0 10 10" fill="none" xmlns="http://www.w3.org/2000/svg">
<path d="M9.73037 4.5354C9.84249 4.44788 9.92567 4.32579 9.96822 4.18623C10.0108 4.04668 10.0106 3.89668 9.96767 3.75725C9.92476 3.61781 9.84127 3.49595 9.72892 3.40875C9.61658 3.32154 9.481 3.27337 9.3412 3.27097L6.62607 3.1635C6.61272 3.16253 6.59992 3.15754 6.58921 3.14913C6.57851 3.14072 6.57035 3.12924 6.56573 3.11608L5.6275 0.460775C5.58036 0.325683 5.49474 0.209032 5.38223 0.126616C5.26973 0.0442002 5.13577 0 4.99849 0C4.86122 0 4.72726 0.0442002 4.61475 0.126616C4.50224 0.209032 4.41662 0.325683 4.36948 0.460775L3.43427 3.12556C3.42965 3.13872 3.42149 3.1502 3.41079 3.15861C3.40008 3.16702 3.38728 3.17201 3.37393 3.17298L0.658797 3.28046C0.518999 3.28285 0.383421 3.33103 0.271074 3.41823C0.158726 3.50544 0.0752416 3.6273 0.0323274 3.76673C-0.0105869 3.90616 -0.0107795 4.05617 0.0317767 4.19572C0.0743329 4.33527 0.157504 4.45737 0.269627 4.54489L2.3995 6.29929C2.41016 6.30807 2.41813 6.31995 2.42242 6.33343C2.42671 6.34691 2.42713 6.36142 2.42364 6.37515L1.69055 9.09684C1.65256 9.23543 1.65624 9.38293 1.70109 9.51925C1.74594 9.65558 1.82978 9.77412 1.9412 9.85875C2.05263 9.94337 2.18623 9.98998 2.32383 9.99223C2.46143 9.99448 2.59635 9.95225 2.71023 9.8713L4.96078 8.29076C4.97187 8.28274 4.98502 8.27845 4.99849 8.27845C5.01196 8.27845 5.02512 8.28274 5.0362 8.29076L7.28675 9.8713C7.3991 9.95502 7.53353 10 7.67139 10C7.80925 10 7.94369 9.95502 8.05604 9.8713C8.16749 9.78747 8.25141 9.66951 8.29625 9.53365C8.34109 9.39779 8.34465 9.25071 8.30643 9.11264L7.56731 6.38147C7.5634 6.36776 7.56361 6.35312 7.56793 6.33954C7.57225 6.32596 7.58046 6.31411 7.59145 6.30561L9.73037 4.5354Z" fill="#FFD233"/>
</svg>
