<svg width="103" height="21" viewBox="0 0 103 21" fill="none" xmlns="http://www.w3.org/2000/svg">
<g clip-path="url(#clip0_3_170)">
<path d="M19.8334 9.78835C20.0502 9.62684 20.211 9.40153 20.2933 9.144C20.3756 8.88648 20.3752 8.60966 20.2922 8.35236C20.2092 8.09506 20.0478 7.87018 19.8306 7.70926C19.6133 7.54833 19.3512 7.45943 19.0809 7.45501L13.8309 7.25668C13.805 7.2549 13.7803 7.24569 13.7596 7.23017C13.7389 7.21464 13.7231 7.19346 13.7142 7.16918L11.9 2.26918C11.8089 2.01989 11.6433 1.80462 11.4258 1.65254C11.2082 1.50045 10.9492 1.41888 10.6838 1.41888C10.4183 1.41888 10.1593 1.50045 9.94178 1.65254C9.72423 1.80462 9.55868 2.01989 9.46753 2.26918L7.6592 7.18668C7.65026 7.21096 7.63449 7.23214 7.61379 7.24767C7.59309 7.26319 7.56834 7.2724 7.54253 7.27418L2.29253 7.47251C2.02222 7.47693 1.76006 7.56583 1.54283 7.72676C1.32559 7.88768 1.16416 8.11256 1.08119 8.36986C0.998206 8.62716 0.997834 8.90398 1.08012 9.1615C1.16241 9.41903 1.32323 9.64434 1.54003 9.80585L5.65836 13.0433C5.67897 13.0596 5.69438 13.0815 5.70267 13.1064C5.71097 13.1312 5.71179 13.158 5.70503 13.1833L4.28753 18.2058C4.21408 18.4616 4.22119 18.7338 4.30791 18.9854C4.39463 19.2369 4.55674 19.4557 4.77219 19.6118C4.98764 19.768 5.24597 19.854 5.51204 19.8582C5.7781 19.8623 6.03898 19.7844 6.2592 19.635L10.6109 16.7183C10.6323 16.7035 10.6577 16.6956 10.6838 16.6956C10.7098 16.6956 10.7353 16.7035 10.7567 16.7183L15.1084 19.635C15.3256 19.7895 15.5855 19.8725 15.8521 19.8725C16.1187 19.8725 16.3786 19.7895 16.5959 19.635C16.8114 19.4803 16.9736 19.2626 17.0603 19.0119C17.147 18.7612 17.1539 18.4898 17.08 18.235L15.6509 13.195C15.6433 13.1697 15.6437 13.1427 15.6521 13.1176C15.6604 13.0926 15.6763 13.0707 15.6975 13.055L19.8334 9.78835Z" fill="#FFD233"/>
</g>
<g clip-path="url(#clip1_3_170)">
<path d="M39.8888 9.78835C40.0953 9.62684 40.2485 9.40153 40.3269 9.144C40.4052 8.88648 40.4049 8.60966 40.3258 8.35236C40.2468 8.09506 40.0931 7.87018 39.8862 7.70926C39.6793 7.54833 39.4296 7.45943 39.1722 7.45501L34.1722 7.25668C34.1476 7.2549 34.124 7.24569 34.1043 7.23017C34.0846 7.21464 34.0696 7.19346 34.0611 7.16918L32.3333 2.26918C32.2465 2.01989 32.0888 1.80462 31.8816 1.65254C31.6744 1.50045 31.4277 1.41888 31.175 1.41888C30.9222 1.41888 30.6755 1.50045 30.4683 1.65254C30.2611 1.80462 30.1034 2.01989 30.0166 2.26918L28.2944 7.18668C28.2859 7.21096 28.2709 7.23214 28.2512 7.24767C28.2314 7.26319 28.2079 7.2724 28.1833 7.27418L23.1833 7.47251C22.9258 7.47693 22.6762 7.56583 22.4693 7.72676C22.2624 7.88768 22.1087 8.11256 22.0296 8.36986C21.9506 8.62716 21.9502 8.90398 22.0286 9.1615C22.107 9.41903 22.2601 9.64434 22.4666 9.80585L26.3888 13.0433C26.4085 13.0596 26.4231 13.0815 26.431 13.1064C26.4389 13.1312 26.4397 13.158 26.4333 13.1833L25.0833 18.2058C25.0133 18.4616 25.0201 18.7338 25.1027 18.9854C25.1853 19.2369 25.3397 19.4557 25.5449 19.6118C25.7501 19.768 25.9961 19.854 26.2495 19.8582C26.5029 19.8623 26.7513 19.7844 26.9611 19.635L31.1055 16.7183C31.1259 16.7035 31.1501 16.6956 31.175 16.6956C31.1998 16.6956 31.224 16.7035 31.2444 16.7183L35.3888 19.635C35.5957 19.7895 35.8433 19.8725 36.0972 19.8725C36.351 19.8725 36.5986 19.7895 36.8055 19.635C37.0108 19.4803 37.1653 19.2626 37.2479 19.0119C37.3304 18.7612 37.337 18.4898 37.2666 18.235L35.9055 13.195C35.8983 13.1697 35.8987 13.1427 35.9067 13.1176C35.9146 13.0926 35.9297 13.0707 35.95 13.055L39.8888 9.78835Z" fill="#FFD233"/>
</g>
<g clip-path="url(#clip2_3_170)">
<path d="M60.8334 9.78835C61.0502 9.62684 61.211 9.40153 61.2933 9.144C61.3756 8.88648 61.3752 8.60966 61.2922 8.35236C61.2092 8.09506 61.0478 7.87018 60.8306 7.70926C60.6133 7.54833 60.3512 7.45943 60.0809 7.45501L54.8309 7.25668C54.805 7.2549 54.7803 7.24569 54.7596 7.23017C54.7389 7.21464 54.7231 7.19346 54.7142 7.16918L52.9 2.26918C52.8089 2.01989 52.6433 1.80462 52.4258 1.65254C52.2082 1.50045 51.9492 1.41888 51.6838 1.41888C51.4183 1.41888 51.1593 1.50045 50.9418 1.65254C50.7242 1.80462 50.5587 2.01989 50.4675 2.26918L48.6592 7.18668C48.6503 7.21096 48.6345 7.23214 48.6138 7.24767C48.5931 7.26319 48.5683 7.2724 48.5425 7.27418L43.2925 7.47251C43.0222 7.47693 42.7601 7.56583 42.5428 7.72676C42.3256 7.88768 42.1642 8.11256 42.0812 8.36986C41.9982 8.62716 41.9978 8.90398 42.0801 9.1615C42.1624 9.41903 42.3232 9.64434 42.54 9.80585L46.6584 13.0433C46.679 13.0596 46.6944 13.0815 46.7027 13.1064C46.711 13.1312 46.7118 13.158 46.705 13.1833L45.2875 18.2058C45.2141 18.4616 45.2212 18.7338 45.3079 18.9854C45.3946 19.2369 45.5567 19.4557 45.7722 19.6118C45.9876 19.768 46.246 19.854 46.512 19.8582C46.7781 19.8623 47.039 19.7844 47.2592 19.635L51.6109 16.7183C51.6323 16.7035 51.6577 16.6956 51.6838 16.6956C51.7098 16.6956 51.7353 16.7035 51.7567 16.7183L56.1084 19.635C56.3256 19.7895 56.5855 19.8725 56.8521 19.8725C57.1187 19.8725 57.3786 19.7895 57.5959 19.635C57.8114 19.4803 57.9736 19.2626 58.0603 19.0119C58.147 18.7612 58.1539 18.4898 58.08 18.235L56.6509 13.195C56.6433 13.1697 56.6437 13.1427 56.6521 13.1176C56.6604 13.0926 56.6763 13.0707 56.6975 13.055L60.8334 9.78835Z" fill="#FFD233"/>
</g>
<g clip-path="url(#clip3_3_170)">
<path d="M80.8888 9.78835C81.0953 9.62684 81.2485 9.40153 81.3269 9.144C81.4052 8.88648 81.4049 8.60966 81.3258 8.35236C81.2468 8.09506 81.0931 7.87018 80.8862 7.70926C80.6793 7.54833 80.4296 7.45943 80.1722 7.45501L75.1722 7.25668C75.1476 7.2549 75.124 7.24569 75.1043 7.23017C75.0846 7.21464 75.0696 7.19346 75.0611 7.16918L73.3333 2.26918C73.2465 2.01989 73.0888 1.80462 72.8816 1.65254C72.6744 1.50045 72.4277 1.41888 72.175 1.41888C71.9222 1.41888 71.6755 1.50045 71.4683 1.65254C71.2611 1.80462 71.1034 2.01989 71.0166 2.26918L69.2944 7.18668C69.2859 7.21096 69.2709 7.23214 69.2512 7.24767C69.2314 7.26319 69.2079 7.2724 69.1833 7.27418L64.1833 7.47251C63.9258 7.47693 63.6762 7.56583 63.4693 7.72676C63.2624 7.88768 63.1087 8.11256 63.0296 8.36986C62.9506 8.62716 62.9502 8.90398 63.0286 9.1615C63.107 9.41903 63.2601 9.64434 63.4666 9.80585L67.3888 13.0433C67.4085 13.0596 67.4231 13.0815 67.431 13.1064C67.4389 13.1312 67.4397 13.158 67.4333 13.1833L66.0833 18.2058C66.0133 18.4616 66.0201 18.7338 66.1027 18.9854C66.1853 19.2369 66.3397 19.4557 66.5449 19.6118C66.7501 19.768 66.9961 19.854 67.2495 19.8582C67.5029 19.8623 67.7513 19.7844 67.9611 19.635L72.1055 16.7183C72.1259 16.7035 72.1501 16.6956 72.175 16.6956C72.1998 16.6956 72.224 16.7035 72.2444 16.7183L76.3888 19.635C76.5957 19.7895 76.8433 19.8725 77.0972 19.8725C77.351 19.8725 77.5986 19.7895 77.8055 19.635C78.0108 19.4803 78.1653 19.2626 78.2479 19.0119C78.3304 18.7612 78.337 18.4898 78.2666 18.235L76.9055 13.195C76.8983 13.1697 76.8987 13.1427 76.9067 13.1176C76.9146 13.0926 76.9297 13.0707 76.95 13.055L80.8888 9.78835Z" fill="#FFD233"/>
</g>
<g clip-path="url(#clip4_3_170)">
<path d="M101.833 9.78835C102.05 9.62684 102.211 9.40153 102.293 9.144C102.376 8.88648 102.375 8.60966 102.292 8.35236C102.209 8.09506 102.048 7.87018 101.831 7.70926C101.613 7.54833 101.351 7.45943 101.081 7.45501L95.8309 7.25668C95.805 7.2549 95.7803 7.24569 95.7596 7.23017C95.7389 7.21464 95.7231 7.19346 95.7142 7.16918L93.9 2.26918C93.8089 2.01989 93.6433 1.80462 93.4258 1.65254C93.2082 1.50045 92.9492 1.41888 92.6838 1.41888C92.4183 1.41888 92.1593 1.50045 91.9418 1.65254C91.7242 1.80462 91.5587 2.01989 91.4675 2.26918L89.6592 7.18668C89.6503 7.21096 89.6345 7.23214 89.6138 7.24767C89.5931 7.26319 89.5683 7.2724 89.5425 7.27418L84.2925 7.47251C84.0222 7.47693 83.7601 7.56583 83.5428 7.72676C83.3256 7.88768 83.1642 8.11256 83.0812 8.36986C82.9982 8.62716 82.9978 8.90398 83.0801 9.1615C83.1624 9.41903 83.3232 9.64434 83.54 9.80585L87.6584 13.0433C87.679 13.0596 87.6944 13.0815 87.7027 13.1064C87.711 13.1312 87.7118 13.158 87.705 13.1833L86.2875 18.2058C86.2141 18.4616 86.2212 18.7338 86.3079 18.9854C86.3946 19.2369 86.5567 19.4557 86.7722 19.6118C86.9876 19.768 87.246 19.854 87.512 19.8582C87.7781 19.8623 88.039 19.7844 88.2592 19.635L92.6109 16.7183C92.6323 16.7035 92.6577 16.6956 92.6838 16.6956C92.7098 16.6956 92.7353 16.7035 92.7567 16.7183L97.1084 19.635C97.3256 19.7895 97.5855 19.8725 97.8521 19.8725C98.1187 19.8725 98.3786 19.7895 98.5959 19.635C98.8114 19.4803 98.9736 19.2626 99.0603 19.0119C99.147 18.7612 99.1539 18.4898 99.08 18.235L97.6509 13.195C97.6433 13.1697 97.6437 13.1427 97.6521 13.1176C97.6604 13.0926 97.6763 13.0707 97.6975 13.055L101.833 9.78835Z" fill="#F0F0F0"/>
</g>
<defs>
<clipPath id="clip0_3_170">
<rect width="21" height="21" fill="white"/>
</clipPath>
<clipPath id="clip1_3_170">
<rect width="20" height="21" fill="white" transform="translate(21)"/>
</clipPath>
<clipPath id="clip2_3_170">
<rect width="21" height="21" fill="white" transform="translate(41)"/>
</clipPath>
<clipPath id="clip3_3_170">
<rect width="20" height="21" fill="white" transform="translate(62)"/>
</clipPath>
<clipPath id="clip4_3_170">
<rect width="21" height="21" fill="white" transform="translate(82)"/>
</clipPath>
</defs>
</svg>
